<svg xmlns="http://www.w3.org/2000/svg" xml:space="preserve" width="256" height="256" viewBox="0 0 67.733 67.733"><g transform="translate(-5.532 -6.735)"><circle cx="28.795" cy="31.057" r="17.373" style="fill:none;fill-opacity:1;stroke:#fff;stroke-width:1.19625;stroke-dasharray:none"/><path d="M40.698 45.12c3.316-3.875-.113.147 3.383-3.86 1.287.004 2.527 2.918 2.527 2.918l3.223 2.121 2.527 2.918 3.223 2.121 2.527 2.917 3.223 2.122 2.527 2.917s3.05.847 3.224 2.122c.23 1.695-1.672 3.865-3.383 3.86-1.287-.003-2.527-2.917-2.527-2.917l-3.224-2.122-2.526-2.917-3.224-2.121-2.526-2.918-3.224-2.121-2.526-2.918s-3.051-.846-3.224-2.121z" style="fill:#fff;stroke:#fff;stroke-width:1.023"/><path d="M13.2 32.435c1.286 8.057 7.26 11.403 14.218 14.031-6.652-3.487-12.296-7.977-13.003-15.435Z" style="fill:#fff;fill-opacity:1;stroke:#fff;stroke-width:.123;stroke-dasharray:none;stroke-opacity:1"/><path fill="#fff" d="M30.316 54.378c-1.593-.003-3.59.5-5.56 1.526-1.966 1.025-3.524 2.368-4.44 3.68-.914 1.306-1.162 2.524-.712 3.392.451.864 1.59 1.36 3.188 1.36 1.598.005 3.594-.5 5.559-1.521 1.97-1.025 3.527-2.373 4.44-3.68.918-1.307 1.16-2.524.712-3.392-.452-.864-1.589-1.365-3.187-1.365zm4.114 3.146c-.157.685-.497 1.388-.976 2.072-1.012 1.446-2.664 2.856-4.731 3.93-2.068 1.08-4.168 1.62-5.931 1.62-.833 0-1.605-.124-2.255-.389l.474.914c.451.868 1.588 1.365 3.186 1.365 1.598 0 3.595-.502 5.56-1.527 1.969-1.02 3.527-2.367 4.44-3.679.913-1.307 1.164-2.524.712-3.388zm1.289.752c.501 1.195.098 2.65-.86 4.015-.846 1.213-2.14 2.39-3.742 3.375.497.054 1.016.08 1.545.08 2.215 0 4.22-.474 5.635-1.212 1.419-.739 2.198-1.706 2.198-2.682 0-.975-.78-1.942-2.198-2.68-.72-.377-1.598-.686-2.578-.896zm4.776 5.586c-.457.533-1.084 1.003-1.822 1.388-1.567.814-3.68 1.302-6.011 1.302-.95 0-1.863-.08-2.717-.232a15.235 15.235 0 0 1-3.085 1.168c.054.031.108.058.166.09 1.415.738 3.42 1.212 5.636 1.212 2.215 0 4.22-.474 5.635-1.213 1.419-.738 2.198-1.705 2.198-2.68z" style="stroke-width:.0447609"/></g></svg>