<svg xmlns="http://www.w3.org/2000/svg" width="256" height="256" viewBox="0 0 67.733 67.733"><defs><clipPath id="a" clipPathUnits="userSpaceOnUse"><path d="m-.271 9.543-26.053 26.052 25.389 25.39 2.911-2.913-.092.01c-.189.02-.377.05-.565.076-.242.03-.483.065-.726.094-.254.022-.508.047-.762.067a4.024 4.024 0 0 1-.605-.021 6.848 6.848 0 0 1-.676-.127 16.717 16.717 0 0 1-.592-.148c-.173-.042-.345-.083-.517-.127-.188-.05-.376-.099-.565-.146-.096-.027-.192-.056-.29-.074-.387-.067-.309-.457.078-.388.108.02.213.05.318.08.188.046.374.095.56.145.17.043.34.083.51.125.195.053.392.1.589.147.211.052.425.09.64.12.18.022.36.022.54.018l.738-.066c.237-.029.474-.062.71-.092.191-.028.381-.056.572-.077.156-.017.312-.03.468-.049a.476.476 0 0 1 .103-.002l22.705-22.705Z" style="fill:red;fill-opacity:1;fill-rule:nonzero;stroke:none;stroke-width:.264583"/></clipPath><clipPath id="b" clipPathUnits="userSpaceOnUse"><path d="M40.707 42.069v14.816h14.855V42.07Z" style="fill:red;fill-opacity:1;fill-rule:nonzero;stroke:none;stroke-width:.264583"/></clipPath></defs><path d="M-.935 10.29c.017-.44 1.318-.441 1.322 0 .548 48.643 1.484 43.966.548 48.643-.244 1.223-3.497 1.223-3.741 0-.936-4.677 0 0 1.87-48.643z" clip-path="url(#a)" style="fill:#fff;stroke:#fff;stroke-width:0" transform="rotate(-45 2.71 -1.123)"/><path d="M40.746 44.185c.75-.364 1.448-1.13 2.116-2.116 2.92.376 3.618.218 4.763 2.91.385.905.673 3.146 2.646 5.292 1.973 2.146 4.836 5.784 5.292 6.614-.662-.369-3.857-2.001-6.615-3.968s-4.55-3.74-5.292-3.97c-2.692-1.543-3.097-2.39-2.91-4.762z" clip-path="url(#b)" style="fill:#fff;stroke:#fff;stroke-width:0" transform="translate(1.587 1.587)"/></svg>