<svg xmlns="http://www.w3.org/2000/svg" xml:space="preserve" width="256" height="256" viewBox="0 0 67.733 67.733"><path d="M28.426 8.112 34.69 9.96l-3.957 8.837L24.6 16.62zM36.538 9.497l7.189 3.694-9.3 17.675-4.419-2.374 3.562.065 4.419-7.056-5.87-2.045zM44.254 16.026l5.474 3.76L41.22 33.9l-5.408-2.968zM49.794 22.82c.264.197 4.485 2.77 4.287 3.033-.198.264-6.463 11.08-6.463 11.08l-5.145-2.704zM33.57 60.544s.593-10.75.857-10.42c.264.33 2.375 1.253 2.375 1.253l8.507.132-.461 8.97-7.321.065-2.374-6.133-.198 6.133z" style="fill:#fff;stroke:#fff;stroke-width:0" transform="rotate(39.138 46.43 33.046) scale(1.12134)"/><path d="M32.515 60.676c-.396-.066-10.75.33-10.75.066 0-.263.395-12.992.395-12.992l3.364.132-3.826-2.44-8.442-14.115 7.19-14.18 15.498 5.079-3.297 5.078-10.487-2.176 2.704 1.715-2.638 1.649 4.683-.66 7.386 4.221zM35.219 33.966l-.726 14.51s1.78 1.846 2.309 1.846c.527 0 9.695.264 9.892-.066.198-.33 3.43-14.444 3.43-14.444l-2.308 3.166c-4.897-2.759-4.829-2.764-10.685-5.672l.066 6.266z" style="fill:#fff;stroke:#fff;stroke-width:0" transform="rotate(39.138 46.43 33.046) scale(1.12134)"/></svg>