<svg width="256" height="256" viewBox="0 0 67.733 67.733" xml:space="preserve" xmlns="http://www.w3.org/2000/svg"><path style="fill:#fff;stroke:#fff;stroke-width:.0652896;stroke-dasharray:none" d="M20.138 6.64c-2.85-.02-5.313 2.132-6.366 4.67-.996 2.021-1.136 4.356-.965 6.573.418 2.944 1.87 5.922 4.506 7.477.625.355 1.426.685 1.551 1.493.643 2.54.118 5.23-.637 7.695-.427 1.04-.137 2.195-.226 3.289.007 6.742-.098 13.486.025 20.227.142.823.926 1.471 1.714 1.66 1.002.17 2.152-.122 2.697-1.045.335-.444.538-.946.434-1.512-.036-6.818.074-13.639-.1-20.456.014-1.107-.26-2.174-.601-3.217a17.034 17.034 0 0 1-.45-6.165c.11-.66.42-1.326 1.072-1.603 3.005-1.52 4.851-4.793 5.131-8.086.1-1.477.085-2.999-.283-4.438-.622-2.393-1.997-4.758-4.285-5.882-.991-.505-2.11-.7-3.217-.68Zm-4.496 5.972c.054 2.43-.367 3.907.294 6.23.475 1.67 1.333 3.051 1.967 4.658-1.394-.96-2.03-1.771-2.745-3.276-.641-1.35-.62-2.706-.531-4.074.122-1.875.422-2.375.992-3.581.017-.005.035-.081.023.043zM39.79 7.676c-.557-.138-.805.16-.659.712.091 4.373.307 8.752.299 13.121-.464.125-.95.037-1.426.066-.23-4.477-.026-8.972-.162-13.454.035-.265-.123-.563-.429-.425-.549-.048-.749.311-.618.83l-.045 13.099c-.448-.085-1.387.37-1.193-.418-.159-4.446-.068-8.905-.094-13.357-.333-.064-1.38-.34-1.278.28l-.047 13.494-1.571.049c.315-4.632.293-9.278.49-13.913-.313-.133-.812-.136-1.158.012-.344 1.852-.498 3.782-.753 5.665-.228 2.292-.613 4.575-.68 6.88-.046 1.121 1.487 3.527 2.035 4.63.865 2.189 1.254 2.81 1.414 5.264.058 1.688.152 1.199.037 5.414-.115 4.526-.062 14.705.066 21.743-.124 1.288 1.222 2.39 2.451 2.184.954-.255 1.89-1.054 1.828-2.122.229-4.552.11-9.114.146-13.67-.014-2.663.029-5.33-.02-7.99-.23-3.4-.224-3.662-.165-5.534.46-3.728.118-2.675 2.008-6.087 1.086-1.158 1.67-2.745 1.522-4.333a417.243 417.243 0 0 0-1.252-11.259c-.051-.419-.183-1.006-.745-.881ZM50.737 6.839c-.692.084-1.049.824-1.472 1.299-2.013 2.912-2.803 6.44-3.536 9.847-1.019 5.504-1.232 11.114-1.375 16.698.047.366.645.184 1.248 1.665 1.046 5.843-.025-.02 1.072 5.86.03 1.265.12 2.353.057 3.371.07 4.058.049 8.12.225 12.174.11 1.04 1.151 1.773 2.137 1.826.856-.129 1.716-.663 1.994-1.501.166-10.36.099-20.723.129-31.084l.01-20.077c-.098-.158-.333-.05-.489-.078z"/></svg>