<svg width="256" height="256" viewBox="0 0 67.733 67.733" xml:space="preserve" xmlns="http://www.w3.org/2000/svg"><path style="fill:#fff;stroke:#fff;stroke-width:.185208" d="M16.818 34.44c3.665 1.36 4.556 4.569 4.55 8.376 1.395-2.708 3.301-4.391 5.21-6.068l2.507-4.485 2.242-.66c1.278-1.798 1.304-4.31 1.385-6.792l-1.12-1.385s2.402-3.25 2.77-3.364c.668-.209 6.796 5.892 6.265 6.53-.052 2.23-.762 3.99-2.045 5.341 0 0-4.437 2.41-4.155 2.902.383.665-4.17 13.667-4.682 13.52-1.688 3.33-4.647 5.705-8.442 7.453-2.903-.943-5.176-3.46-7.387-6.133-3.355-1.071-5.026-3.49-6.661-5.936-.518-1.44-.911-3.002-1.253-4.617-1.515-1.429-1.995-2.858-2.11-4.287.13-2.11.627-4.22 3.363-6.331 2.23-1.084 4.63-1.371 7.386 0 1.314 1.538 2.263 3.348 2.177 5.936z" transform="translate(-.033 -4.068)"/><path style="fill:#fff;stroke:#fff;stroke-width:.185208" d="M26.579 30.614c1.117.839 2.404.655 3.693.462 1.115-1.762 1.311-3.983 1.385-6.265l-1.187-1.056 1.055-1.714c-.92-.702-2.093-.768-3.363-.594-1.518 2.786-2 5.854-1.583 9.167z" transform="translate(-.033 -4.068)"/><path style="fill:#fff;stroke:#fff;stroke-width:.0529167;stroke-dasharray:none" d="M38.846 33.252c-.492 0-3.277 1.713-3.298 2.375-.008.264-1.143 3.282-1.187 3.561-.147.946 4.268 10.704 4.485 10.487 2.227 2.522 4.594 4.695 7.519 5.474 3.305-1.324 5.75-3.294 7.65-5.672 3.739-2.602 6.901-5.707 7.849-10.75 1.067-1.702 1.917-3.49 2.11-5.54-.19-2.17-1.619-3.72-3.561-5.013-1.15-.938-3.05-1.128-5.606-.66-1.667.97-3.394 1.91-3.694 3.562-.312.967-.476 1.935-.264 2.902-1.537.267-2.61 1.464-3.627 2.77-.72 0-1.39 5.829-.923 5.54.435-.269-3.59-4.85-4.287-4.617z" transform="translate(-.033 -4.068)"/></svg>