<svg width="256" height="256" viewBox="0 0 67.733 67.733" xml:space="preserve" xmlns="http://www.w3.org/2000/svg"><path d="M36.595 21.499s-1.904 1.087 1.588-.936c6.076 4.258 9.29 9.08 9.67 13.936L42.136 40.3l9.556-5.594c-.53-6.78-5.019-13.515-13.504-19.46l-1.66 2.057m5.156 12.98c-.754 0-1.5.558-2.188 1.4 1.37 1.654 3.009 1.668 4.376 0-.693-.858-1.426-1.4-2.188-1.4zm8.51 7.601.091.194-.011-.021c-.842 3.998-4.825 7.04-8.635 7.976 2.654.978 5.81.39 8.758-1.304-.798 2.223-2.543 3.96-4.577 4.828 1.708.425 3.352.288 4.84-.301.135 1.413-.501 2.809-1.659 3.883 1.537-.308 2.797-.876 3.76-1.633-.075 4.562-.81 9.013-1.538 12.66h3.936c-.258-6.58-.423-13.16 2.059-19.742l-7.025-6.54z" fill="#fff" style="stroke-width:.103693"/><path style="fill:#fff;stroke:#fff;stroke-width:.026381" d="M19.844 6.632c-.106 6.9.622 48.32.426 54.571-.174 2.982-.18 3.025-.18 3.024l15.315-.004-.142-2.854s.26-48.763.456-54.737H19.844z"/></svg>