<svg xmlns="http://www.w3.org/2000/svg" xml:space="preserve" width="256" height="256" viewBox="0 0 67.733 67.733"><defs><clipPath id="a" clipPathUnits="userSpaceOnUse"><path d="M2.514 33.676v10.403h24.855c-.816-.165-1.632-.33-2.45-.492-1.948-.382-3.897-.77-5.84-1.178-1.06-.228-2.127-.422-3.188-.645-.297-.064-.597-.116-.893-.188-.976-.24-.846-1.16-.011-1.13.086.002.18.016.28.04.283.071.57.118.854.18 1.061.223 2.128.418 3.188.646 1.94.408 3.884.794 5.83 1.175 2.278.453 4.552.928 6.836 1.354.437.078.873.16 1.31.238h1.825l.065-.027c.148-.063.296-.129.444-.19a1.23 1.23 0 0 1 .436-.101c.296-.009.5.13.57.318h.626V33.676Z" style="fill:red;fill-opacity:1;fill-rule:nonzero;stroke:none;stroke-width:.264583"/></clipPath><clipPath id="b" clipPathUnits="userSpaceOnUse"><path d="M2.61 34.366v19.257h55V34.366Zm12.3 6.08a1.213 1.213 0 0 1 .358.04c.282.071.57.118.853.18 1.061.223 2.128.418 3.188.646 1.94.408 3.884.794 5.83 1.175 2.278.453 4.552.928 6.836 1.354.873.156 1.745.332 2.625.44.099-.049.2-.088.305-.123.093-.025.18-.071.27-.106.148-.063.296-.129.444-.19a1.23 1.23 0 0 1 .436-.101l.032-.001c.636.005.819.697.104 1.07a.17.17 0 0 1-.053.042.204.204 0 0 1-.065.047c-.033.016-.064.035-.095.053l-.09.052c-.02.011-.039.025-.06.036-.016.012-.035.021-.053.03-.022.01-.034.017-.047.024a1 1 0 0 1-.056.035c-.012.012-.025.02-.04.029-.015.012-.031.024-.049.034l-.043.026c-.014.009-.03.016-.043.026-.015.013-.033.021-.05.032a.397.397 0 0 1-.05.03l-.016.007a.194.194 0 0 1-.095.025 1.08 1.08 0 0 1-.55.067c-.994-.104-1.976-.305-2.96-.481-2.29-.427-4.57-.903-6.856-1.357-1.95-.382-3.898-.77-5.842-1.178-1.06-.228-2.126-.422-3.187-.645-.297-.064-.597-.116-.893-.188-.946-.233-.853-1.103-.087-1.13z" style="fill:red;fill-opacity:1;fill-rule:nonzero;stroke:none;stroke-width:.264583"/></clipPath></defs><g style="fill:#fff"><path d="M2.758 39.11c.593-.462 10.024-5.013 10.024-5.013l23.875 6.464.198 3.495" clip-path="url(#a)" style="fill:#fff;stroke:#fff;stroke-width:.79375;stroke-dasharray:none" transform="translate(3.805 1.948)"/><path d="M36.921 43.99c1.649-.593 16.356-9.101 16.356-9.101l3.76 5.21-21.5 13.125s-2.441-.066-2.837-.066c-.396 0-19.588-5.079-19.588-5.079l-3.76 2.177-6.396-11.344" clip-path="url(#b)" style="fill:#fff;stroke:#fff;stroke-width:.79375;stroke-dasharray:none" transform="translate(3.805 1.948)"/></g><ellipse cx="42.168" cy="20.881" rx="4.815" ry="8.178" style="fill:#fff;stroke:#fff;stroke-width:.978958;stroke-dasharray:none"/><path d="m42.127 12.601 5.317.066c2.144 0 3.882 3.663 3.882 8.18 0 4.519-1.738 8.181-3.882 8.181l-5.051.132" style="fill:none;stroke:#fff;stroke-width:.879156"/><ellipse cx="32.403" cy="11.286" rx="4.815" ry="8.178" style="fill:#fff;stroke:#fff;stroke-width:.978958;stroke-dasharray:none" transform="rotate(21.546)"/><path d="m28.997 14.682 4.921 2.014c1.994.787 2.266 4.832.607 9.034-1.66 4.203-4.621 6.97-6.615 6.184l-4.747-1.733" style="fill:none;stroke:#fff;stroke-width:.879156"/></svg>