<svg xmlns="http://www.w3.org/2000/svg" xml:space="preserve" width="256" height="256"><path fill="#fff" d="m41.047 195.362 14.042 15.755 14.041-15.755V70.19H41.067v125.172Zm14.042-11.594a6.4 6.4 0 1 1-6.4 6.4 6.4 6.4 0 0 1 6.395-6.405zM186.865 70.19v125.172l14.042 15.755 14.041-15.755V70.19h-28.063Zm14.042 126.375a6.4 6.4 0 1 1 6.4-6.4 6.4 6.4 0 0 1-6.4 6.4zM150.412 76.432v133.711l14.041 15.755 14.042-15.755V70.189h-21.894a36.483 36.483 0 0 1-6.189 6.253zm14.041 122.102a6.4 6.4 0 1 1-6.4 6.399 6.4 6.4 0 0 1 6.376-6.39zm-50.5-117.12v138.58l14.043 15.756 14.041-15.755V81.415a36.178 36.178 0 0 1-28.084 0zM134.396 214.8a6.4 6.4 0 1 1-6.4-6.4 6.4 6.4 0 0 1 6.4 6.4zM99.39 70.19H77.5v139.954l14.042 15.755 14.042-15.755V76.442a36.488 36.488 0 0 1-6.194-6.253zm-7.828 141.155a6.4 6.4 0 1 1 6.4-6.4 6.4 6.4 0 0 1-6.4 6.4zm72.62-163.281a35.99 35.99 0 0 0-2.402-12.944h53.173v26.695h-53.478a35.98 35.98 0 0 0 2.708-13.75zM41.047 35.119H94.22a36.084 36.084 0 0 0 .32 26.695H41.048V35.12zm86.948 40.756a27.813 27.813 0 1 1 27.813-27.812 27.813 27.813 0 0 1-27.814 27.812z" style="stroke-width:.468478"/></svg>