<svg width="256" height="256" viewBox="0 0 67.733 67.733" xmlns="http://www.w3.org/2000/svg"><path style="fill:#fff;fill-opacity:1;stroke:#fff;stroke-width:.264583" d="M21.82 14.542a2.812 5.419 46.1 0 0-4.52 2.242 2.812 5.419 46.1 0 0-1.954 5.784 2.812 5.419 46.1 0 0 5.854-1.732 2.812 5.419 46.1 0 0 1.955-5.783 2.812 5.419 46.1 0 0-1.335-.511ZM28.764 24.527l-3.978 3.828c28.26 24.943-.036.061 28.224 25.2z"/><path style="fill:#fff;fill-opacity:1;stroke:#fff;stroke-width:.232558" d="M21.033 18.845c-.399.006-.331.641-.65.948-.549.528-2.051.006.266 2.634.15-.234.31-.462.466-.692.15-.232.29-.468.434-.703.102-.185.205-.37.31-.554.115-.203.214-.415.3-.631a4.82 4.82 0 0 0 .106-.274c-.649-.542-1.012-.732-1.232-.728zm1.761 1.193-.024.06a6.026 6.026 0 0 1-.335.703c-.104.181-.207.364-.307.548-.152.249-.301.499-.46.744-.172.254-.348.505-.512.765l-.046.078c.156.17.329.352.511.543.122-.2.236-.403.355-.604.154-.273.318-.54.485-.805.146-.268.33-.511.498-.766.15-.228.3-.457.463-.677-.228-.22-.438-.416-.628-.589zm1.104 1.054c-.135.187-.26.382-.388.574-.166.252-.347.493-.492.757-.164.26-.323.522-.474.789-.15.252-.293.508-.45.756l.439.445.025.025c.167-.219.333-.437.494-.66.183-.246.351-.5.522-.754.14-.21.276-.425.412-.64.106-.178.225-.348.338-.522l.066-.093a.825.825 0 0 1 .083-.1 71.262 71.262 0 0 0-.575-.577zm1.037 1.047-.01.014-.047.065c-.111.174-.23.343-.335.52-.14.22-.278.44-.422.656-.175.259-.347.519-.534.77a25.796 25.796 0 0 1-.56.742c5.248 5.22 3.401 2.448 4.04 1.833.657-.632 3.633 1.323-2.132-4.6z"/><g style="fill:#fff;fill-opacity:1;stroke:#fff"><path style="fill:#fff;fill-opacity:1;stroke:#fff;stroke-width:.264583" d="M51.652 30.078s-5.95.704-9.612 5.01c-.524.617 0 2.454 0 2.454l2.25-.103c3.092-3.219 5.014-4.04 7.566-4.294zM60.847 34.2c-3.658-3.467-8.715-4.066-8.715-4.066l-.204 3.068c2.552.253 4.474 1.075 7.566 4.294l2.25.102s.524-1.836 0-2.453c-.287-.337-.587-.651-.897-.945z" transform="rotate(-43.9 30.487 61.169)"/></g></svg>