<svg width="256" height="256" viewBox="0 0 67.733 67.733" xml:space="preserve" xmlns="http://www.w3.org/2000/svg"><path style="fill:#fff;stroke:#fff;stroke-width:.607009;stroke-dasharray:none" d="M11.183 46.06s-.514-2.515.423-4.215c.839-1.521 3.361-2.398 4.642-3.572 2.273-2.085 3.616-3.778 5.17-6.443 1.305-2.242 1.439-5.42 3.195-7.328.73-.793 1.82-1.328 2.891-1.446 1.974-.216 3.81 1.203 5.781 1.446.956.117 1.947.193 2.89 0 3.595-.738 7.437-4.07 11.034-3.725 1.208 1.913 1.275 3.132 1.974 5.17.797 2.323.715 4.77.783 7.226.094 3.405-.663 6.802-1.445 10.117-.35 1.483-.34 3.753-1.853 3.928-4.546.527-13.724 1.892-13.724 1.892s-.374-3.755-2.099-5.88c-1.367-1.824-3.629-3.276-6.605-4.186-3.002-.646-7.258-.09-9.249 1.793-2.31 1.806-3.236 2.976-3.808 5.223z"/><circle style="fill:none;stroke:#fff;stroke-width:1.25882;stroke-dasharray:none" cx="21.604" cy="50.347" r="10.065"/><path style="fill:none;stroke:#fff;stroke-width:1.60798;stroke-dasharray:none" d="M14.297 43.938c.13.26 13.993 13.08 13.993 13.08"/><path style="fill:none;stroke:#fff;stroke-width:1.56972;stroke-dasharray:none" d="M28.927 44.376 14.625 57.134"/><path style="fill:none;stroke:#fff;stroke-width:1.43178;stroke-dasharray:none" d="M11.825 50.296h19.311"/><path style="fill:none;stroke:#fff;stroke-width:1.40996;stroke-dasharray:none" d="m21.756 40.624-.05 19.303"/><path style="fill:none;stroke:#fff;stroke-width:.767433;stroke-dasharray:none" d="M48.3 43.928c.204 0 5.865-.914 8.356-1.172.745-.077 1.79.5 1.885 1.223.095.723-.982 1.661-1.681 1.783-3.136.545-9.68 1.273-9.68 1.273"/></svg>