<svg xmlns="http://www.w3.org/2000/svg" xml:space="preserve" width="256" height="256" viewBox="0 0 67.733 67.733"><path d="M3.82 18.47c-.555.203-.728.881-.872 1.397-.449 1.89.047 3.943 1.25 5.46 1.1 1.439 2.572 2.543 4.168 3.376 1.973 1.071 4.111 1.811 6.265 2.426 1.133.292 2.275.556 3.423.786-1.487-.086-2.97-.18-4.447-.355-2.838-.306-5.683-.726-8.447-1.434-.232.204-.1.594-.115.87.086 1.682 1.208 3.098 2.397 4.192.818.738 1.736 1.362 2.672 1.933 2.78.001 5.571-.005 8.336.297.115-.011.242.077.066.12-1.555.384-3.18.44-4.772.617-1.034.13-2.092.105-3.112.318-.529.16-.745.809-.461 1.273.75 1.42 2.138 2.345 3.404 3.268.709.435 1.347 1.032 2.147 1.296.956.172 1.887-.268 2.768-.58.908-.437 1.82-.873 2.68-1.401-.4 1.431-.878 2.858-1.04 4.34-.023.436-.097 1.04.41 1.234.75.448 1.667.191 2.49.267.2.012.445-.016.617.04a427.772 427.772 0 0 0-1.396 6.861c-.081.195.157.34.235.12 2.543-3.457 5.065-6.93 7.607-10.386-.102-.297-.703-.041-.987-.126-.968-.003-1.936.008-2.903-.021 1.846-3.842 3.812-7.626 5.62-11.485.279-.574.494-1.254.18-1.863-.365-1.04-1.545-1.358-2.435-1.794-7.095-3.099-14.221-6.127-21.327-9.203-1.454-.595-2.88-1.267-4.343-1.838a.347.347 0 0 0-.077-.005zM61.097 18.574A10674.85 10674.85 0 0 0 37.77 28.612c-1.223.563-2.498 1.02-3.676 1.675-.828.49-1.133 1.563-.852 2.456.258.797.733 1.511 1.074 2.276 1.578 3.202 3.202 6.394 4.726 9.616-1.274.111-2.578.01-3.844.108.102.374.485.678.688 1.028 2.344 3.16 4.627 6.366 7 9.504.267.064.074-.344.08-.482-.42-2.203-.89-4.4-1.337-6.594.924-.114 1.883.089 2.793-.134.393-.12.776-.43.732-.884-.006-1.498-.515-2.94-.91-4.37-.013-.14-.256-.58.022-.385 1.506.831 3.06 1.743 4.803 1.929.848.063 1.474-.64 2.158-1.023 1.452-1.01 3.036-2.026 3.897-3.626.236-.373.1-.844-.24-1.102-.415-.31-.997-.191-1.479-.288-2.158-.226-4.339-.285-6.468-.723-.192-.033-.377-.172-.064-.162 2.324-.304 4.684-.287 7.03-.31.466-.055.994.111 1.421-.085 1.845-1.158 3.698-2.585 4.583-4.642.26-.688.475-1.485.255-2.209-.197-.131-.461.108-.686.1-3.459.815-6.998 1.239-10.532 1.52-.56.036-1.121.067-1.682.106 2.676-.544 5.335-1.257 7.85-2.323 2.443-1.07 4.862-2.535 6.35-4.813 1.076-1.633 1.35-3.792.632-5.62-.141-.297-.361-.61-.677-.718l-.32.137z" style="fill:#fff;stroke:#fff;stroke-width:.0461669" transform="translate(1.228 -3.002)"/></svg>