<svg width="256" height="256" viewBox="0 0 67.733 67.733" xml:space="preserve" xmlns="http://www.w3.org/2000/svg"><path style="fill:#fff;stroke:#fff;stroke-width:.0652896" d="M12.698 25.224c-.41.034-1.006-.145-1.14.4-.74 1.368-1.575 2.688-2.309 4.052-.41.542-.65 1.221-1.045 1.788-.236.322-.304.836-.691.99.047.372.621.324.881.498.553.327 1.186.507 1.76.791.664.216 1.323.525 1.954.802.607.316 1.291.494 1.916.79.552.237 1.105.47 1.652.704.602.301 1.263.48 1.866.783.54.084 1.015.696 1.582.476.428-.477.686-1.096 1.031-1.637.247-.585.661-1.082.954-1.625.389-.793.891-1.528 1.31-2.3.563-.86.98-1.829 1.551-2.672.235-.379.4-.805.675-1.166.346-.775.926-1.448 1.197-2.244-1.312-.294-2.708-.108-4.053-.19-1.36-.088-2.723-.198-4.092-.193a206.767 206.767 0 0 0-5-.047zM29.545 24.061c-.398.032-.286.567-.545.775-1.081 1.778-2.06 3.635-3.155 5.403-.354.65-.701 1.328-1.12 1.947-.196.486-.564.843-.729 1.343-.705 1.01-1.19 2.164-1.873 3.187a81.453 81.453 0 0 0-1.762 3.123c-.309.288-.412.761-.667 1.1.003.47.68.42.927.717.852.493 1.719.989 2.574 1.458.313.31.804.385 1.116.7.794.328 1.457.906 2.25 1.25.747.468 1.54.878 2.277 1.354.47.115.822.7 1.35.623.16-.194.268-.422.449-.596.494-1.096 1.222-2.064 1.747-3.146.432-.481-.332-.879-.47-1.343-.507-.88-.715-1.88-.885-2.867-.072-1.294-.059-2.599.252-3.866.086-.869.422-1.668.657-2.499.268-.617.383-1.291.788-1.835.58-1.263 1.433-2.395 2.384-3.41.286-.363-.415-.367-.523-.621-.381-.209-.767-.373-1.106-.642-.72-.355-1.385-.82-2.114-1.183-.526-.335-1.08-.618-1.611-.936a.585.585 0 0 0-.211-.036zM40 17.131c-.668.144-1.305.392-1.979.535-.776.31-1.58.533-2.331.903-1.016.47-1.986 1.036-2.852 1.756-.63.528-1.384 1.043-1.732 1.804.206.49.867.527 1.23.878 1.125.586 2.192 1.279 3.315 1.875.554.359 1.141.77 1.779.928.85-.3 1.724-.574 2.637-.49.485-.037 1.02.077 1.47-.059.292-1.331.075-2.72-.001-4.066a11.733 11.733 0 0 0-.53-2.623c-.122-.511-.205-1.102-.54-1.504l-.466.063zM52.847 24.264c-.905.3-1.88.447-2.76.8-.698.12-1.274.494-1.933.718-.67.433-1.448.712-2.068 1.22-.301.15-.944.464-.591.87.26.241.388.586.595.844.298.336.335.852.595 1.213.188.457.094.99.293 1.429.386.422.965.546 1.407.894.693.427 1.437.78 2.12 1.223.47.333 1.022.544 1.503.868.461.198.87.67 1.372.676.24-.521.346-1.088.57-1.612.31-2.065.315-4.2-.073-6.253-.324-.924-.399-1.997-.87-2.858a.305.305 0 0 0-.16-.032zM46.695 34.043c.1.279-.093.37-.186.56-.114.83-.575 1.551-.92 2.298-.342.568-.637 1.228-1.125 1.663-.44.87-1.236 1.53-1.892 2.25-1.538 1.52-3.453 2.728-5.552 3.258-.847.216-1.733.08-2.575.142-.732 1.365-1.541 2.68-2.297 4.03.156.322.666.359.931.6.642.386 1.309.75 1.944 1.128.517.28 1.017.644 1.564.895.926.55 1.876 1.047 2.774 1.622.48.235.886.582 1.393.786.659.317 1.274.845 1.948 1.05.625-1.115 1.324-2.201 1.898-3.343.483-.7.866-1.481 1.315-2.197.211-.442.536-.856.722-1.32.5-.736.901-1.552 1.366-2.32.42-.74.873-1.456 1.27-2.204.635-1.005 1.157-2.08 1.799-3.082.427-.8.886-1.601 1.376-2.354-.042-.567-.797-.702-1.177-.99-.615-.363-1.244-.703-1.855-1.066-.874-.512-1.754-1.069-2.678-1.464zM52.903 41.323c-.428.253-.465.85-.814 1.191-.417.861-.965 1.646-1.409 2.499-.288.638-.707 1.182-1.037 1.799-.395.565-.656 1.225-1.062 1.789-.448.963-1.095 1.815-1.57 2.768-.286.558-.71 1.101-.865 1.689.695.596 1.426 1.187 2.196 1.662.153.333.571.338.773.642.68.551 1.413 1.006 2.074 1.582 1.193.876 2.351 1.793 3.533 2.678.452.264.798.815 1.336.876.174-.125.163-.392.361-.526.163-.35.36-.65.576-.96.67-1.345 1.528-2.596 2.221-3.936.365-.602.772-1.184 1.007-1.849-.022-.546-.561-.88-.717-1.385a11.111 11.111 0 0 1-.728-1.183c-.205-.328-.337-.676-.607-.958-.216-.454-.544-.833-.745-1.286-.288-.372-.494-.82-.78-1.177-.249-.58-.677-1.085-.971-1.65-.182-.255-.225-.566-.481-.74-.286-.487-.575-.967-.832-1.458-.52-.636-.786-1.494-1.385-2.059a.159.159 0 0 0-.074-.008zM33.793 51.924c-1.605.578-3.054 1.575-4.323 2.708-.496.517-1.132.977-1.43 1.641.333.403.949.513 1.371.834 1.09.696 2.264 1.253 3.343 1.956.44.275.937.487 1.358.773.368.285.85.427 1.23.717.697.327 1.314.813 2.026 1.13.194.023.36.487.498.181.455-.83.53-1.795.862-2.661.165-1.443.25-2.921.065-4.364-.291-.424-.875-.52-1.264-.845-1.07-.612-2.161-1.205-3.214-1.837-.148-.118-.323-.253-.522-.233zM20.462 45.026c-1.816.911-3.508 2.153-4.774 3.752-.323.366.23.6.508.718.471.233.903.528 1.366.78.684.402 1.4.746 2.04 1.21 1.9.985 3.685 2.188 5.595 3.153.427-.03.41-.658.551-.963.722-1.948.6-4.077.585-6.123-.517-.241-.975-.628-1.512-.87a34.684 34.684 0 0 0-1.732-1.001c-.6-.391-1.25-.748-1.901-1.021l-.726.365z"/><path style="fill:#fff;stroke:#fff;stroke-width:.0652896" d="M39.899 27.528c-.648.01-1.317.16-1.83.557-.914.438-1.609 1.257-2.245 2.028-.929 1.269-1.614 2.72-2.069 4.218-.225.963-.526 1.907-.543 2.907-.05.91-.043 1.882.263 2.74.272.788.783 1.61 1.614 1.885.917.2 1.88.013 2.704-.401.491-.208.936-.529 1.418-.73.566-.547 1.262-.976 1.8-1.568.567-.545 1.156-1.119 1.57-1.771.33-.178.343-.614.619-.86.43-.648.76-1.345 1.036-2.064.297-.58.258-1.281.535-1.853.096-.733 0-1.467-.283-2.146-.416-1.214-1.494-2.032-2.606-2.567-.56-.352-1.34-.351-1.983-.375z"/><path style="fill:#fff;stroke:#fff;stroke-width:.185208" d="M52.462 23.367c-2.39.707-5.537 1.518-7.576 3.105-.644-.679-1.074-1.39-2.31-1.31.337-2.396.182-5.65-.923-8.046 7.102-.186 9.034 2.653 10.809 6.25z"/></svg>