<svg xmlns="http://www.w3.org/2000/svg" xml:space="preserve" width="256" height="256"><path fill="#fff" d="m106.419 23.528 15.926 71.843c.129.481.381.825 1.135 1.246.752.42 1.963.735 3.197.733 1.233-.001 2.454-.311 3.21-.733.755-.423 1.008-.775 1.134-1.246l15.927-71.843Zm39.38 43.407-6.74 30.4-.026.098-.014.083c-.773 2.887-2.835 5.062-5.092 6.323-2.256 1.261-4.755 1.783-7.237 1.785-2.482.003-4.977-.51-7.237-1.772-2.26-1.26-4.331-3.446-5.105-6.336l-.015-.084-.028-.097-6.502-29.32c-15.762 6.409-28.09 20.021-33.239 37.029a203.017 203.017 0 0 0 14.309 6.85c11.746 5.06 26.791 9.984 39.187 9.92 12.4-.064 27.37-5.118 39.035-10.281a198.702 198.702 0 0 0 14.585-7.196c-5.59-17.697-18.975-31.614-35.88-37.402zm39.396 44.889c-3.704 2.009-8.796 4.643-14.751 7.28-12.187 5.392-27.806 10.924-42.342 11-14.54.075-30.24-5.314-42.509-10.6a206.825 206.825 0 0 1-14.93-7.182c-.227 31.21-1.616 61.389 4.262 83.412 3.159 11.839 8.272 21.198 16.55 27.716 5.353 4.218 12.15 7.344 20.921 9.022v-71.124c-12.688 7.137-30.042 1.244-35.895-13.561 3.908-9.884 13.34-14.645 22.486-14.612 10.885.038 21.353 6.877 21.642 19.967h.041v39.409h15.954l.001-38.842-.014-.013c0-.187.01-.37.013-.554.29-13.09 10.772-19.929 21.656-19.967 9.146-.033 18.565 4.728 22.472 14.612-5.847 14.79-23.169 20.68-35.853 13.574v71.056c8.654-1.713 15.32-4.871 20.562-9.12 8.146-6.6 13.107-16.09 16.107-28.047 5.575-22.221 3.898-52.486 3.626-83.426z" style="stroke-width:.442795"/></svg>