<svg xmlns="http://www.w3.org/2000/svg" xml:space="preserve" width="256" height="256"><path fill="#fff" d="m122.07 21.925 40.085.046c-.503 28.064 1.097 53.043 6.399 72.88 4.113 15.54 10.787 28.155 20.66 36.109.045 4.342.365 8.684.96 13.072 1.416 10.467 6.17 19.745 10.398 29.71-10.764-.595-19.906-5.303-29.87-11.336-9.416-5.713-19.38-12.57-31.492-17.277.091-.64.183-1.326.183-1.92.868-10.833-.046-23.86-1.874-38.028-3.566-26.739-10.376-57.157-15.45-83.256Zm48.312.046h37.777c.731 16.683-4.616 34.806-9.896 54.46-3.793 13.895-7.541 28.475-8.684 43.742-5.76-6.536-9.964-15.724-13.072-27.425-4.937-18.557-6.582-43.033-6.125-70.777zm-19.106 6.81a4.114 4.114 0 0 0-.045 0 4.114 4.114 0 0 0-4.114 4.114 4.114 4.114 0 0 0 4.114 4.113 4.114 4.114 0 0 0 4.113-4.113 4.114 4.114 0 0 0-4.068-4.114zm1.097 23.996a4.114 4.114 0 0 0-.045 0 4.114 4.114 0 0 0-4.114 4.091 4.114 4.114 0 0 0 4.114 4.114 4.114 4.114 0 0 0 4.113-4.114 4.114 4.114 0 0 0-4.068-4.09zm2.697 25.71a4.114 4.114 0 0 0-.046 0 4.114 4.114 0 0 0-4.113 4.114 4.114 4.114 0 0 0 4.113 4.114 4.114 4.114 0 0 0 4.114-4.114 4.114 4.114 0 0 0-4.068-4.113zm7.313 27.7a4.114 4.114 0 0 0-.045 0 4.114 4.114 0 0 0-4.114 4.113 4.114 4.114 0 0 0 4.114 4.114 4.114 4.114 0 0 0 4.113-4.114 4.114 4.114 0 0 0-4.068-4.114zm14.627 21.984a4.114 4.114 0 0 0-.046 0 4.114 4.114 0 0 0-4.114 4.114 4.114 4.114 0 0 0 4.114 4.114 4.114 4.114 0 0 0 4.113-4.114 4.114 4.114 0 0 0-4.067-4.114zm-39.172 25.276c10.33 4.388 19.335 10.467 28.613 15.998 11.244 6.81 23.082 12.752 37.412 12.57 3.748 10.375 6.307 21.939 4.57 36.52h-37.64c-6.033-18.923-19.608-35.652-43.467-48.816.64-.457 1.325-.96 1.965-1.462 4.388-3.474 6.993-8.593 8.547-14.81zm-18.374 21.346c23.814 11.975 36.749 26.738 42.782 43.742h-58.23c0-6.537-.275-13.256-1.783-19.929-1.189-5.256-3.2-10.467-6.4-15.495 7.36-1.508 15.312-3.702 23.631-8.318zm-32.36 9.964c3.747 4.982 5.85 10.193 7.084 15.678 1.28 5.713 1.6 11.792 1.6 18.1H48.252c.914-8.136 5.714-18.192 12.844-23.814 8.136-6.353 16.455-8.181 26.007-9.964zm-3.794 4.8a4.114 4.114 0 0 0-4.114 4.113 4.114 4.114 0 0 0 4.114 4.113 4.114 4.114 0 0 0 4.113-4.113 4.114 4.114 0 0 0-4.113-4.114zm116.119 15.997a4.114 4.114 0 0 0-.046 0 4.114 4.114 0 0 0-4.09 4.113 4.114 4.114 0 0 0 4.09 4.114 4.114 4.114 0 0 0 4.114-4.114 4.114 4.114 0 0 0-4.068-4.113zm-20.5.274a4.114 4.114 0 0 0-.045 0 4.114 4.114 0 0 0-4.114 4.114 4.114 4.114 0 0 0 4.114 4.113 4.114 4.114 0 0 0 4.113-4.113 4.114 4.114 0 0 0-4.068-4.114zm-92.1.046a4.114 4.114 0 0 0-4.113 4.113 4.114 4.114 0 0 0 4.113 4.114 4.114 4.114 0 0 0 4.114-4.114 4.114 4.114 0 0 0-4.114-4.113zm125.26 19.928v8.273H43.91v-8.273z" style="stroke-width:.457072"/></svg>