<?xml version="1.0" encoding="UTF-8" standalone="no"?>
<svg
   viewBox="0 0 256 256"
   version="1.1"
   id="svg460"
   sodipodi:docname="chest.svg"
   xml:space="preserve"
   width="256"
   height="256"
   inkscape:version="1.2.2 (732a01da63, 2022-12-09)"
   xmlns:inkscape="http://www.inkscape.org/namespaces/inkscape"
   xmlns:sodipodi="http://sodipodi.sourceforge.net/DTD/sodipodi-0.dtd"
   xmlns="http://www.w3.org/2000/svg"
   xmlns:svg="http://www.w3.org/2000/svg"><defs
     id="defs464" /><sodipodi:namedview
     id="namedview462"
     pagecolor="#7c7c7c"
     bordercolor="#434343"
     borderopacity="0.24705882"
     inkscape:showpageshadow="2"
     inkscape:pageopacity="0"
     inkscape:pagecheckerboard="0"
     inkscape:deskcolor="#d1d1d1"
     showgrid="true"
     inkscape:zoom="2"
     inkscape:cx="229.25"
     inkscape:cy="127.5"
     inkscape:window-width="2560"
     inkscape:window-height="1377"
     inkscape:window-x="-8"
     inkscape:window-y="-8"
     inkscape:window-maximized="1"
     inkscape:current-layer="svg460"><inkscape:grid
       type="xygrid"
       id="grid605" /></sodipodi:namedview><path
     d="m 177.16155,30.31341 8.21315,1.648506 c -0.70399,1.771691 -1.46664,3.707642 -2.34661,5.719861 -3.40259,7.996095 -8.33048,17.194818 -11.73307,20.603266 -2.8746,2.845272 -11.61573,5.614277 -19.41823,6.734788 -6.57051,1.055969 -13.14103,2.287949 -19.77021,2.287949 v 9.368847 h -8.21316 V 67.30778 c -7.03983,0.05863 -14.19701,-1.5253 -19.77021,-2.287949 C 96.32071,63.905184 87.579582,61.136179 84.704982,58.302644 81.302386,54.894196 76.374503,45.695461 72.971918,37.705253 72.091936,35.687159 71.329286,33.745333 70.625303,31.961916 L 78.83845,30.31341 c 4.927884,6.670258 22.29283,27.607909 49.16155,27.607909 26.86872,0 44.23367,-20.937651 49.16155,-27.607909 z m 18.71424,3.742855 18.71425,3.742844 -17.4236,43.629415 19.18356,28.746016 -5.57321,38.77779 c -1.05597,0.82132 -2.22928,1.64263 -3.51992,2.5226 -6.62918,4.39991 -15.31165,8.50648 -22.93814,8.50648 -2.52262,0 -7.03985,-2.05328 -11.8504,-6.1012 -4.86923,-4.0479 -9.97311,-9.67978 -14.54901,-15.37031 -8.33048,-10.50109 -14.25568,-20.06354 -15.25299,-21.70617 V 106.0093 h 6.45319 V 95.449537 h -6.45319 V 87.23639 h 6.45319 V 76.676627 c 0,0 22.82082,-4.517231 29.56733,-10.894147 5.98386,-5.931073 10.44243,-15.505246 14.07969,-23.947195 1.1733,-2.810071 2.22928,-5.455869 3.10925,-7.77902 z m -135.751583,0 c 0.879971,2.323151 1.935952,4.974824 3.109265,7.796621 3.637249,8.441949 8.095814,18.016122 14.079679,23.929594 9.034463,7.726228 29.567329,10.894147 29.567329,10.894147 V 87.23639 h 6.45319 v 8.213147 h -6.45319 V 106.0093 h 6.45319 v 10.79443 c -0.99731,1.64263 -6.92251,11.20508 -15.25299,21.70617 -4.5759,5.69053 -9.679782,11.32241 -14.549011,15.37031 -4.810551,4.04792 -9.327783,6.1012 -11.850397,6.1012 -7.626496,0 -16.308961,-4.10657 -22.938144,-8.50648 -1.290638,-0.87997 -2.463944,-1.70128 -3.51992,-2.5226 L 39.65,110.17454 58.833561,81.428524 41.409961,37.793246 Z M 132.10658,87.23639 v 8.213147 h -8.21316 V 87.23639 Z m 0,18.77291 v 13.78636 l 0.76265,1.23197 c 0,0 7.15717,11.96773 16.83695,24.05279 4.81056,6.04253 10.26643,12.14372 15.95697,16.89561 5.7492,4.7519 11.79173,8.56514 18.65558,8.56514 9.15179,0 17.59959,-3.57858 24.46344,-7.62649 l -1.23197,8.7998 -31.79662,23.8768 L 128,138.21657 l -47.753583,57.37471 -31.796616,-23.8768 -1.231972,-8.7998 c 6.863847,4.04791 15.311648,7.62649 24.463443,7.62649 6.863847,0 12.906378,-3.81324 18.655577,-8.56514 5.690541,-4.75189 11.146411,-10.85308 15.956971,-16.89561 9.67978,-12.08506 16.83696,-24.05279 16.83696,-24.05279 l 0.76264,-1.23197 V 106.0093 Z M 128,154.7602 l 46.11095,55.26274 19.41823,-14.54899 -4.34123,21.70617 c -7.68516,1.81862 -40.59581,8.50647 -61.18795,8.50647 -20.59214,0 -53.502794,-6.68785 -61.187945,-8.50647 l -4.341233,-21.70617 19.418227,14.54899 z"
     fill="#ffffff"
     fill-opacity="1"
     id="path668"
     style="stroke-width:0.586653"
     sodipodi:nodetypes="ccccccccccccccscccccccsccccccccccccccccccccccccccsccccccccccccccccscccccccscccccccccczcccc" /></svg>
