<svg xmlns="http://www.w3.org/2000/svg" xml:space="preserve" width="256" height="256"><path fill="#fff" d="M201.234 21.024c-29.22 6.016-50.961 21.011-69.502 38.44a218.003 218.003 0 0 0-11.477 12.889c2.29.914 4.41 1.924 6.221 3.315.147-.184.328-.42.47-.6 2.938-3.733 4.89-6.213 6.165-7.54l6.073 5.826c-.246.258-2.724 3.236-5.623 6.92a965.78 965.78 0 0 0-10.067 13.042c-3.558 4.687-7.068 9.397-9.756 13.138a166.682 166.682 0 0 0-3.302 4.737c-.818 1.235-1.397 2.425-1.208 1.934l-7.853-3.03c.561-1.455 1.13-2.174 2.046-3.556.506-.763 1.109-1.637 1.765-2.575-1.866-1.024-3.849-1.969-5.875-2.652-5.54 8.586-10.812 17.465-15.915 26.474 2.217.42 4.389 1.005 6.384 1.914.255.117.512.239.766.367a197.56 197.56 0 0 1 2.84-4.652c.898-1.413 1.424-2.291 2.305-3.268l6.254 5.634c.142-.157-.635.86-1.456 2.15a197.201 197.201 0 0 0-3.06 5.025 545.2 545.2 0 0 0-4.917 8.513c-.43.765-.874 1.553-1.365 2.413a818.403 818.403 0 0 0-1.873 3.346c-2.858 5.141-5.657 10.309-7.779 14.402a164.259 164.259 0 0 0-2.59 5.172c-.634 1.344-1.043 2.597-.931 2.119l-8.193-1.93c.349-1.482.805-2.285 1.513-3.785.473-.997 1.071-2.195 1.72-3.473-.082-.044-.157-.087-.263-.136-.654-.306-1.827-.58-3.325-.68-1.207-.082-2.596-.054-4.075.01-3.255 6.105-6.491 12.18-9.733 18.17 11.328-1.743 23.289.414 34.006 5.269 11.79 5.34 22.172 13.953 28.609 24.681a737.965 737.965 0 0 0 13.256-16.038c-2.82-3.295-6.044-6.315-9.621-9.122-1.767 2.52-5.714 8.142-5.714 8.142l-6.895-4.83s7.391-10.554 14.887-21.212a5048.93 5048.93 0 0 1 10.415-14.764 893.333 893.333 0 0 1 3.569-5.008 165.9 165.9 0 0 1 1.094-1.51c.14-.19.26-.347.369-.49.11-.142.016-.1.519-.604l5.951 5.953c.145-.145.147-.151.185-.192-.053.068-.138.18-.253.334-.242.329-.595.815-1.033 1.424a964.77 964.77 0 0 0-3.535 4.96c-.22.31-.562.8-.791 1.124a53.774 53.774 0 0 1 10.737 10.053c6.86-9.21 13.508-18.461 20.038-27.741-2.932-3.517-6.316-6.724-10.096-9.69-1.767 2.52-5.715 8.14-5.715 8.14l-6.894-4.829s7.392-10.553 14.887-21.212a5138.305 5138.305 0 0 1 10.415-14.764 918.9 918.9 0 0 1 3.57-5.009c.448-.624.813-1.128 1.094-1.508.14-.19.258-.347.368-.49.109-.142.015-.101.519-.604l5.951 5.953c.143-.144.145-.15.183-.19a24.29 24.29 0 0 0-.25.331c-.244.33-.597.816-1.034 1.424a902.124 902.124 0 0 0-3.535 4.961l-.792 1.122a53.687 53.687 0 0 1 10.092 9.272c6.922-10.113 13.805-20.243 20.759-30.374-3.818-6.887-6.365-16.828-8.075-28.012-1.642-10.727-2.256-22.382-1.626-33.023zm-11.661 11.218.015 5.814c.032 12.315.113 26.971 3.863 38.212l1.892 5.671-5.977-.13c-9.92-.22-19.615-3.032-27.506-6.935-7.89-3.902-14.096-8.573-16.797-14.49l-1.3-2.848 2.353-2.063c9.851-8.642 23.998-16.782 37.939-21.403zm-8.363 11.856c-9.669 3.894-19.318 9.512-26.631 15.304 2.227 2.44 6.084 5.49 11.013 7.926 5.3 2.623 11.696 4.672 18.22 5.567-2.199-9.561-2.539-19.67-2.602-28.797zm-72.649 33.89-9.023 14.596c3.957.949 7.405 2.64 10.297 4.313 1.342-1.887 2.644-3.703 5.247-7.441 1.855-2.667 3.698-5.351 5.02-7.355.052-.077.068-.108.118-.182-1.355-.825-3.123-1.79-4.978-2.475-2.71-1.003-5.268-1.336-6.681-1.456zm67.145 32.452-8.896 13.024c6.956 5.518 12.88 12 17.296 19.68l7.283-11.007c-1.872-7.043-7.974-15.947-15.683-21.696zm-100.207 25c-.95-.017-1.343.057-2.025.095L65.2 152.538c1.576-.06 3.172-.13 4.792-.02 2.102.142 4.241.48 6.322 1.454.111.05.217.13.328.187 1.335-2.29 2.176-3.717 4.336-7.463a791.322 791.322 0 0 0 4.746-8.324c.236-.423.353-.65.555-1.015-1.185-.538-2.984-1.052-4.908-1.393-1.929-.343-4.07-.493-5.873-.524zm60.758 29.052-8.896 13.023c6.957 5.518 12.88 12 17.296 19.68l7.284-11.008c-1.872-7.043-7.974-15.945-15.684-21.695zm-82.784 23.566a36.64 36.64 0 0 0-4.592 1.431l-3.814 1.475c.643 21.1 13.316 35.95 28.504 41.527 14.351 5.27 31.281 2.283 41.768-10.16l-1.778-4.11a40.29 40.29 0 0 0-2.312-4.51c-7.861 12.634-22.08 15.542-34.775 10.88-12.768-4.688-23.562-16.997-23-36.533z" style="stroke-width:.467646"/></svg>